<svg width="103" height="30" viewBox="0 0 103 30" fill="none" xmlns="http://www.w3.org/2000/svg">
<path d="M23.59 0.019999V23H19.24V12.47L12.04 22.7H11.98L5.05 13.13V23H0.85V0.019999H0.88L12.07 15.89L23.53 0.019999H23.59ZM33.4073 9.89V23H29.2073V9.89H33.4073ZM29.1173 5.24C29.1173 4.64 29.3473 4.14 29.8073 3.74C30.2873 3.32 30.8273 3.11 31.4273 3.11C32.0073 3.11 32.5273 3.32 32.9873 3.74C33.4473 4.14 33.6773 4.64 33.6773 5.24C33.6773 5.84 33.4473 6.34 32.9873 6.74C32.5273 7.14 32.0073 7.34 31.4273 7.34C30.8273 7.34 30.2873 7.14 29.8073 6.74C29.3473 6.34 29.1173 5.84 29.1173 5.24Z" fill="#F087B1"/>
<path d="M42.4427 12.89C42.8027 12.19 43.2927 11.56 43.9127 11C44.5527 10.44 45.2027 10.01 45.8627 9.71C46.5227 9.39 47.0427 9.23 47.4227 9.23L47.2127 13.43C47.0927 13.41 46.9227 13.4 46.7027 13.4C45.8627 13.4 45.1227 13.62 44.4827 14.06C43.8427 14.5 43.3527 15.07 43.0127 15.77C42.6727 16.45 42.5027 17.15 42.5027 17.87V23H38.3327V9.89H42.1127L42.4427 12.89ZM64.8979 9.89V23H60.6979V21.38C59.4379 22.7 57.9779 23.36 56.3179 23.36C54.3779 23.36 52.7979 22.78 51.5779 21.62C50.3779 20.46 49.7779 18.74 49.7779 16.46C49.7779 15.02 50.0679 13.76 50.6479 12.68C51.2479 11.58 52.0379 10.73 53.0179 10.13C53.9979 9.53 55.0479 9.23 56.1679 9.23C57.3279 9.23 58.2479 9.41 58.9279 9.77C59.6079 10.11 60.2079 10.6 60.7279 11.24L60.9979 9.89H64.8979ZM57.5179 19.94C58.9779 19.94 60.0379 19.28 60.6979 17.96V14.75C60.4579 14.11 60.0379 13.6 59.4379 13.22C58.8579 12.84 58.1679 12.65 57.3679 12.65C56.4479 12.65 55.6579 12.99 54.9979 13.67C54.3579 14.35 54.0379 15.21 54.0379 16.25C54.0379 16.93 54.1979 17.56 54.5179 18.14C54.8379 18.7 55.2579 19.14 55.7779 19.46C56.3179 19.78 56.8979 19.94 57.5179 19.94ZM84.4956 9.89V23C84.4956 24.24 84.1356 25.36 83.4156 26.36C82.7156 27.38 81.7556 28.17 80.5356 28.73C79.3356 29.31 78.0256 29.6 76.6056 29.6C75.5256 29.6 74.5756 29.47 73.7556 29.21C72.9556 28.95 72.3056 28.66 71.8056 28.34C71.3256 28.02 70.7456 27.58 70.0656 27.02L72.5256 24.14C73.1256 24.7 73.7156 25.14 74.2956 25.46C74.8956 25.78 75.6456 25.94 76.5456 25.94C77.6056 25.94 78.4956 25.67 79.2156 25.13C79.9356 24.61 80.2956 23.88 80.2956 22.94V21.08C79.8956 21.76 79.2756 22.31 78.4356 22.73C77.6156 23.15 76.6056 23.36 75.4056 23.36C74.2256 23.36 73.1256 23.06 72.1056 22.46C71.1056 21.84 70.3056 21 69.7056 19.94C69.1056 18.86 68.8056 17.67 68.8056 16.37C68.8056 15.05 69.1156 13.84 69.7356 12.74C70.3756 11.64 71.2056 10.78 72.2256 10.16C73.2656 9.54 74.3556 9.23 75.4956 9.23C76.5756 9.23 77.5356 9.39 78.3756 9.71C79.2156 10.01 79.8556 10.41 80.2956 10.91L80.6256 9.89H84.4956ZM76.6656 19.94C78.3456 19.94 79.5556 19.28 80.2956 17.96V14.75C80.0156 14.11 79.5456 13.6 78.8856 13.22C78.2456 12.84 77.5056 12.65 76.6656 12.65C75.6456 12.65 74.7856 12.99 74.0856 13.67C73.3856 14.35 73.0356 15.21 73.0356 16.25C73.0356 17.29 73.3856 18.17 74.0856 18.89C74.7856 19.59 75.6456 19.94 76.6656 19.94ZM95.95 19.79C96.79 19.79 97.66 19.5 98.56 18.92L100.42 22.04C99.7 22.44 98.94 22.76 98.14 23C97.34 23.24 96.58 23.36 95.86 23.36C94.3 23.36 92.95 23.07 91.81 22.49C90.69 21.89 89.84 21.06 89.26 20C88.68 18.92 88.39 17.69 88.39 16.31C88.39 15.03 88.72 13.85 89.38 12.77C90.06 11.69 90.98 10.84 92.14 10.22C93.3 9.58 94.57 9.26 95.95 9.26C97.83 9.26 99.37 9.81 100.57 10.91C101.79 12.01 102.58 13.58 102.94 15.62L93.34 18.68C93.98 19.42 94.85 19.79 95.95 19.79ZM95.62 12.53C94.68 12.53 93.93 12.85 93.37 13.49C92.81 14.13 92.53 14.99 92.53 16.07V16.34L98.29 14.39C97.87 13.15 96.98 12.53 95.62 12.53Z" fill="#56597A"/>
</svg>
